# xmcd CD database file
# Copyright (C) 1993-1998 Ti Kan
#
# Track frame offsets:
#	190
#	10597
#	22005
#	31177
#	42592
#	54410
#	65530
#	77375
#	87840
#	97972
#	109112
#	119347
#	131147
#	142530
#
# Disc length: 2062 seconds
#
# Revision: 1
# Processed by: cddbd v1.4b41PL1 Copyright (c) Steve Scherf et al.
# Submitted via: CDValet v3.31 - Copyright (c) 1997 Greg Leichner
#
DISCID=a7080c0e
DTITLE=Dubs - The Best Of
DYEAR=1900
DGENRE=
TTITLE0=Could This Be Magic
TTITLE1=Is There A Love for Me
TTITLE2=Song In My Heart
TTITLE3=Your Very First Love
TTITLE4=Gonna Make A Change
TTITLE5=Be Sure My Love
TTITLE6=Darling
TTITLE7=Don't Ask Me To Be Lonely
TTITLE8=Such Lovin'
TTITLE9=This To Me Is Love
TTITLE10=Beside My Love
TTITLE11=Blue Velvet
TTITLE12=Chapel Of Dreams
TTITLE13=You're Free To Go
EXTD=
EXTT0=
EXTT1=
EXTT2=
EXTT3=
EXTT4=
EXTT5=
EXTT6=
EXTT7=
EXTT8=
EXTT9=
EXTT10=
EXTT11=
EXTT12=
EXTT13=
PLAYORDER=
